<svg width="34" height="34" viewBox="0 0 34 34" fill="none" xmlns="http://www.w3.org/2000/svg">
<circle cx="16.9" cy="16.9" r="16.9" fill="black"/>
<path d="M12.864 22.16C12.0427 22.16 11.3067 21.968 10.656 21.584C10.0053 21.2 9.488 20.6773 9.104 20.016C8.73067 19.344 8.544 18.5867 8.544 17.744C8.544 16.9013 8.73067 16.1493 9.104 15.488C9.488 14.816 10.0053 14.288 10.656 13.904C11.3067 13.52 12.0427 13.328 12.864 13.328C13.6213 13.328 14.3147 13.4613 14.944 13.728C15.584 13.9947 16.0907 14.368 16.464 14.848L15.072 16.512C14.9227 16.3413 14.7467 16.1813 14.544 16.032C14.3413 15.8827 14.1173 15.7653 13.872 15.68C13.6267 15.5947 13.3707 15.552 13.104 15.552C12.6987 15.552 12.3413 15.648 12.032 15.84C11.7227 16.0213 11.4827 16.2773 11.312 16.608C11.1413 16.9387 11.056 17.3173 11.056 17.744C11.056 18.1493 11.1413 18.5173 11.312 18.848C11.4933 19.1787 11.7387 19.44 12.048 19.632C12.3573 19.824 12.7093 19.92 13.104 19.92C13.3813 19.92 13.6373 19.888 13.872 19.824C14.1067 19.7493 14.32 19.6427 14.512 19.504C14.7147 19.3653 14.9013 19.1947 15.072 18.992L16.448 20.672C16.0853 21.1307 15.5787 21.4933 14.928 21.76C14.288 22.0267 13.6 22.16 12.864 22.16ZM20.4628 22L16.9108 13.504H19.7428L21.8548 19.856L21.2308 19.92L23.4068 13.504H26.2068L22.4788 22H20.4628Z" fill="white"/>
</svg>
