<?xml version="1.0" standalone="no"?>
<!DOCTYPE svg PUBLIC "-//W3C//DTD SVG 20010904//EN"
 "http://www.w3.org/TR/2001/REC-SVG-20010904/DTD/svg10.dtd">
<svg version="1.0" xmlns="http://www.w3.org/2000/svg"
 width="526.000000pt" height="667.000000pt" viewBox="0 0 526.000000 667.000000"
 preserveAspectRatio="xMidYMid meet">

<g transform="translate(0.000000,667.000000) scale(0.100000,-0.100000)"
fill="#000000" stroke="none">
<path d="M4193 6641 c-44 -11 -118 -56 -141 -86 l-20 -25 -58 26 c-57 25 -64
26 -189 21 -132 -6 -385 -46 -427 -68 -66 -33 -87 -80 -113 -244 -25 -162 -30
-271 -12 -299 15 -22 241 -182 280 -198 27 -11 13 -24 -34 -32 -89 -14 -185
-73 -240 -146 -50 -67 -71 -133 -71 -229 0 -90 7 -129 34 -189 11 -24 18 -46
16 -48 -2 -2 -24 4 -48 12 -25 9 -99 27 -165 42 -106 22 -144 25 -325 26 -233
1 -328 -12 -506 -69 -134 -43 -236 -92 -343 -163 -76 -50 -207 -169 -256 -232
-65 -82 -181 -286 -188 -328 -1 -9 -6 -23 -10 -30 -15 -24 -56 -178 -67 -257
-17 -108 -15 -271 4 -380 30 -170 103 -330 219 -480 39 -50 60 -75 198 -235
215 -249 288 -386 276 -516 -9 -90 -46 -161 -119 -229 -163 -151 -340 -246
-522 -282 -101 -19 -304 -13 -386 12 -120 37 -214 105 -263 188 -38 65 -54
179 -38 274 22 136 56 218 176 433 106 189 118 292 49 428 -18 37 -32 67 -31
68 1 1 40 22 87 47 281 148 255 123 263 263 6 100 10 261 8 292 -1 16 -85 55
-251 116 -160 59 -194 60 -372 5 -149 -45 -349 -115 -390 -136 -21 -10 -28
-21 -28 -43 0 -25 -4 -30 -25 -30 -30 0 -86 -54 -117 -113 -19 -36 -22 -58
-22 -162 -1 -106 2 -126 22 -167 43 -87 80 -111 263 -172 155 -52 254 -122
284 -200 27 -71 9 -131 -82 -272 -172 -268 -243 -475 -243 -710 0 -112 14
-177 55 -259 39 -77 71 -116 131 -161 21 -16 41 -32 44 -35 23 -30 278 -134
350 -144 8 -1 35 -5 60 -9 142 -21 340 -9 500 30 149 37 208 58 355 130 71 35
135 64 142 64 7 0 14 -23 18 -58 4 -31 10 -82 15 -112 4 -30 7 -93 6 -140 -3
-181 -93 -261 -311 -277 -167 -11 -350 59 -639 245 -252 163 -472 183 -655 61
-148 -99 -233 -265 -224 -437 6 -112 59 -217 158 -316 153 -154 382 -153 424
1 26 93 9 131 -98 212 -91 70 -121 111 -121 169 0 35 5 45 37 69 53 41 105 37
218 -15 99 -46 80 -23 -25 29 -86 43 -164 50 -213 20 -47 -29 -67 -62 -67
-111 0 -57 31 -111 92 -162 96 -79 118 -106 118 -144 0 -43 -23 -90 -51 -105
-34 -18 -112 -12 -165 12 -60 28 -159 127 -196 195 -15 28 -33 82 -40 121 -10
60 -9 80 5 138 40 161 157 286 301 322 136 33 288 -12 487 -147 49 -33 92 -60
96 -60 4 0 14 -7 23 -15 38 -35 221 -119 310 -142 208 -55 430 -19 539 89 19
18 46 58 60 88 22 48 25 68 26 165 0 129 -4 165 -40 345 -29 147 -34 223 -16
286 27 100 143 219 278 286 83 41 90 43 179 43 51 0 85 3 76 7 -9 4 -49 7 -89
7 -82 1 -166 -25 -260 -80 -83 -49 -193 -162 -229 -234 -26 -54 -29 -71 -31
-165 l-2 -105 -91 -51 c-181 -103 -513 -184 -750 -184 -292 0 -593 152 -685
345 -26 54 -29 73 -33 188 -9 253 40 433 189 692 120 210 119 343 -5 452 -57
50 -94 68 -216 105 -188 56 -233 109 -234 278 -1 57 4 110 13 133 15 43 66
107 86 107 9 0 15 -46 22 -165 8 -138 13 -170 29 -192 11 -14 98 -73 193 -130
201 -121 193 -120 333 -58 45 20 89 39 96 42 7 3 22 -16 39 -53 21 -45 28 -78
31 -141 4 -74 1 -87 -27 -145 -16 -34 -53 -99 -81 -143 -72 -112 -125 -220
-162 -328 -28 -82 -32 -105 -32 -207 -1 -110 0 -118 31 -181 36 -72 119 -163
174 -190 140 -69 225 -89 372 -89 169 0 296 29 438 100 167 84 286 189 357
313 79 139 75 306 -13 464 -46 82 -69 113 -261 359 -131 168 -178 239 -225
339 -149 318 -140 654 27 986 107 214 248 363 461 487 48 29 159 78 193 87 8
2 34 10 57 18 38 14 149 37 250 51 72 10 345 8 419 -4 114 -18 185 -34 234
-53 8 -3 33 -11 55 -17 22 -6 47 -14 55 -17 8 -4 17 -7 20 -8 3 -1 22 -9 44
-18 21 -9 42 -17 47 -17 5 0 9 -4 9 -9 0 -5 12 -12 26 -15 32 -8 225 -128 282
-175 67 -57 184 -173 222 -221 19 -25 41 -51 48 -59 22 -23 109 -214 120 -266
59 -266 32 -507 -83 -735 -53 -105 -150 -235 -241 -325 -118 -116 -127 -124
-264 -229 -194 -150 -307 -281 -384 -446 -19 -41 -38 -93 -42 -115 -6 -39 -5
-38 27 24 57 108 215 279 335 361 26 19 55 40 64 46 38 32 164 134 226 186
107 88 208 197 268 289 31 46 60 89 65 95 14 17 81 162 103 224 29 82 58 245
58 325 0 91 -16 222 -37 305 -23 92 -102 253 -164 335 -148 195 -381 379 -616
485 -38 17 -75 34 -83 39 -29 15 -43 82 -43 201 -1 175 35 249 167 347 32 24
82 50 111 58 l53 16 87 -51 c48 -27 92 -50 96 -50 17 0 8 -12 -51 -66 -37 -35
-69 -76 -86 -112 -23 -49 -26 -64 -21 -123 3 -38 15 -85 27 -108 30 -59 212
-298 325 -426 53 -60 108 -122 120 -137 44 -50 131 -173 183 -258 228 -376
223 -795 -17 -1190 -119 -196 -236 -335 -561 -660 -228 -228 -354 -340 -382
-340 -13 0 -44 -7 -70 -14 -46 -14 -47 -14 -63 11 -21 31 -30 25 -14 -10 10
-23 8 -28 -25 -58 -55 -47 -80 -103 -81 -174 0 -69 20 -105 83 -148 54 -38 99
-50 139 -36 36 12 83 61 83 88 0 32 12 31 61 -4 55 -41 159 -90 210 -100 32
-6 38 -12 53 -56 23 -63 23 -182 0 -240 l-17 -42 -111 6 c-242 13 -394 72
-533 208 -105 103 -173 273 -173 433 0 37 -4 66 -10 66 -5 0 -10 -25 -10 -55
0 -42 -6 -64 -25 -93 -80 -121 -116 -335 -80 -480 21 -88 74 -179 145 -252 67
-69 119 -103 208 -135 60 -22 79 -24 177 -21 116 4 167 19 283 79 104 54 220
194 238 287 27 143 -19 278 -135 390 -87 84 -212 150 -297 156 l-56 4 27 -32
c24 -28 27 -38 23 -87 -4 -44 -10 -59 -32 -78 -48 -41 -120 -27 -179 35 -75
78 -36 213 78 271 43 23 62 26 145 26 142 -1 267 -45 427 -151 130 -87 213
-191 264 -334 20 -55 23 -84 23 -195 0 -110 -4 -141 -24 -204 -60 -186 -204
-322 -436 -411 -17 -7 -51 5 -140 46 -66 30 -159 71 -207 90 -89 34 -89 34
-151 20 -34 -8 -114 -33 -178 -55 l-117 -40 -63 48 c-84 64 -136 122 -209 233
-77 118 -101 165 -130 258 -21 67 -24 94 -24 255 0 163 2 187 24 253 13 41 41
100 62 133 21 32 36 59 33 59 -20 0 -111 -58 -157 -100 -71 -65 -114 -149
-123 -241 -7 -72 0 -114 51 -319 99 -400 91 -538 -36 -675 -67 -72 -178 -133
-289 -161 -159 -40 -448 16 -660 129 -85 45 -231 143 -335 225 -95 75 -103 80
-80 53 36 -43 281 -249 362 -304 43 -29 119 -73 168 -96 50 -23 98 -46 107
-51 35 -19 176 -49 253 -53 147 -9 287 24 404 95 191 115 261 233 261 438 l0
98 82 -80 c105 -103 153 -142 218 -177 l53 -29 -49 -24 c-42 -21 -50 -30 -57
-64 -10 -48 -2 -164 20 -263 12 -57 23 -82 47 -106 52 -51 179 -142 420 -297
200 -129 234 -148 259 -142 16 3 135 70 265 148 l237 141 7 55 c4 30 8 113 10
185 l3 130 -155 77 c-85 43 -156 81 -158 86 -1 4 15 14 35 21 179 63 353 234
424 419 l24 62 70 0 c193 1 489 77 662 172 104 57 133 78 208 154 57 58 84 96
116 162 24 47 46 102 50 122 4 19 13 55 19 80 8 29 12 162 13 365 l2 320 -90
30 c-79 27 -98 38 -155 93 -164 157 -400 209 -626 137 -89 -28 -147 -63 -217
-132 -50 -49 -117 -150 -117 -176 0 -10 -19 -21 -55 -31 -51 -15 -55 -19 -61
-53 -4 -21 -2 -111 4 -202 9 -135 14 -169 30 -190 24 -32 126 -88 267 -146 61
-25 133 -57 162 -72 48 -25 56 -26 100 -16 27 7 104 34 173 62 68 28 126 49
128 46 10 -10 -63 -117 -114 -168 -103 -103 -260 -159 -480 -172 l-111 -7 -25
54 c-59 124 -186 251 -335 334 -95 54 -246 104 -311 104 -30 0 -52 4 -50 9 2
4 64 59 138 121 200 168 362 319 550 516 250 261 372 455 431 683 29 112 34
152 34 291 -1 186 -35 328 -120 501 -85 173 -190 305 -441 554 -289 287 -334
345 -334 429 0 89 71 195 171 254 31 19 40 20 66 10 25 -9 43 -9 90 4 32 9
137 35 233 58 96 23 202 52 235 65 33 13 70 26 83 30 24 7 42 41 42 80 0 14
17 41 41 67 94 99 146 221 135 323 -15 149 -151 361 -270 422 -41 21 -68 27
-136 29 -47 2 -99 -1 -117 -5z m194 -52 c80 -30 150 -102 201 -210 55 -115 69
-182 53 -256 -11 -49 -59 -158 -67 -151 -1 2 2 46 8 99 14 151 14 151 -133
230 -68 38 -131 71 -139 75 -73 34 -250 140 -250 150 0 16 53 54 99 70 57 21
162 17 228 -7z m-409 -95 c37 -19 83 -45 102 -56 59 -35 312 -174 364 -200 59
-30 84 -23 -250 -79 -231 -38 -254 -40 -280 -27 -142 74 -559 336 -549 346 9
9 375 49 458 51 83 1 92 -1 155 -35z m-498 -156 c456 -274 424 -250 415 -302
-16 -98 -34 -256 -37 -318 -1 -38 -6 -68 -11 -68 -27 0 -542 305 -568 336 -13
15 -1 169 28 351 l15 102 42 -28 c22 -16 75 -49 116 -73z m-2476 -2286 c125
-50 146 -61 130 -70 -11 -6 -78 -34 -149 -62 -72 -28 -148 -59 -170 -69 -22
-10 -74 -32 -116 -50 l-75 -33 -50 30 c-27 16 -111 61 -186 99 l-137 70 187
61 c103 34 207 68 232 77 82 27 165 14 334 -53z m157 -184 c0 -46 1 -114 2
-152 2 -79 0 -81 -128 -151 -61 -33 -395 -205 -399 -205 -6 0 3 373 10 380 5
5 34 17 64 28 52 19 188 76 350 147 41 18 81 34 88 34 9 1 12 -22 13 -81z
m3517 -923 c297 -70 483 -340 484 -705 1 -402 -170 -619 -617 -781 -103 -37
-294 -86 -370 -94 l-60 -7 0 118 c0 66 -2 130 -5 143 -5 24 -4 24 75 27 253 9
422 70 546 199 119 124 164 236 164 410 -1 120 -16 182 -66 270 -99 176 -346
284 -472 206 -17 -11 -84 -31 -146 -46 -63 -14 -119 -28 -123 -31 -14 -9 -9
36 8 69 56 110 199 209 334 230 60 10 190 6 248 -8z m-87 -252 c52 -26 179
-139 179 -158 -1 -11 -304 -115 -333 -115 -10 0 -54 15 -96 34 -43 19 -125 49
-182 66 -57 18 -121 42 -141 54 l-38 22 168 38 c92 20 181 42 197 48 44 15
136 36 166 37 14 1 50 -11 80 -26z m589 -4 c0 -18 -42 -20 -55 -2 -22 28 -18
32 20 20 19 -6 35 -14 35 -18z m30 -99 c0 -38 -2 -70 -4 -70 -2 0 -13 28 -26
61 -18 50 -20 63 -9 70 32 20 39 10 39 -61z m-387 -186 c29 -102 16 -268 -21
-281 -10 -3 -84 -32 -166 -64 -82 -33 -151 -58 -153 -56 -4 4 -7 249 -4 337
l1 46 98 32 c53 18 122 43 152 55 65 27 68 25 93 -69z m-2401 -336 c-59 -87
-116 -223 -128 -311 -3 -21 -7 -46 -9 -55 -2 -9 -4 -21 -5 -27 -5 -29 -18 50
-19 117 -1 111 25 176 105 256 72 72 98 81 56 20z m1024 -114 c66 -33 175
-126 162 -139 -15 -15 -298 157 -298 182 0 13 69 -9 136 -43z m-611 -78 c24
-152 89 -292 162 -349 13 -10 30 -25 38 -33 23 -24 136 -81 204 -104 91 -30
227 -56 319 -59 32 -1 27 -11 -26 -52 -100 -76 -230 -115 -355 -106 -91 7
-157 34 -241 97 -170 128 -241 339 -187 551 21 81 61 180 67 164 2 -5 10 -55
19 -109z m408 -935 c90 -52 169 -91 327 -161 52 -24 129 -59 170 -79 l75 -36
-130 -64 c-71 -35 -157 -81 -191 -102 -34 -22 -64 -39 -67 -39 -4 0 -36 18
-72 40 -37 22 -157 86 -268 141 -216 108 -372 197 -362 207 6 7 403 139 421
141 6 1 50 -21 97 -48z m-414 -205 c53 -35 150 -92 216 -126 224 -116 310
-163 337 -182 l27 -19 0 -174 0 -174 -47 26 c-96 54 -605 389 -626 412 -13 15
-36 194 -36 280 0 41 3 40 129 -43z"/>
<path d="M2263 3316 c-131 -41 -202 -137 -202 -271 -1 -148 98 -233 257 -223
80 5 132 28 188 83 130 130 79 351 -95 410 -53 18 -92 18 -148 1z m39 -18
c-31 -31 11 -98 62 -98 33 0 66 28 66 56 l0 25 30 -23 c37 -27 80 -111 80
-156 0 -112 -69 -207 -173 -237 -108 -31 -211 3 -257 85 -20 37 -25 58 -24
115 2 130 67 209 199 238 11 3 22 5 25 6 2 0 -1 -4 -8 -11z"/>
<path d="M2813 3240 c-146 -35 -244 -181 -213 -322 24 -112 91 -168 214 -176
97 -6 167 21 229 87 43 46 77 122 77 173 0 61 -25 115 -79 169 -72 71 -137 91
-228 69z m18 -34 c-10 -12 -10 -21 1 -43 26 -55 120 -53 134 4 8 30 15 29 46
-4 99 -107 77 -276 -46 -352 -76 -48 -208 -45 -274 5 -89 68 -96 246 -14 337
21 23 87 58 127 67 36 8 42 5 26 -14z"/>
</g>
</svg>
